<svg width="40" height="34" viewBox="0 0 40 34" fill="none" xmlns="http://www.w3.org/2000/svg">
<path d="M5.41667 33.6667V14.6167L1.38542 17.7208L0.129166 16.0708L20 0.854172L39.8708 16.0708L38.6146 17.7083L34.5833 14.6167V33.6667H5.41667ZM11.6667 22.7708C11.2361 22.7708 10.8611 22.6111 10.5417 22.2917C10.2222 21.9722 10.0625 21.5972 10.0625 21.1667C10.0625 20.7361 10.2222 20.3611 10.5417 20.0417C10.8611 19.7222 11.2361 19.5625 11.6667 19.5625C12.0972 19.5625 12.4722 19.7222 12.7917 20.0417C13.1111 20.3611 13.2708 20.7361 13.2708 21.1667C13.2708 21.5972 13.1111 21.9722 12.7917 22.2917C12.4722 22.6111 12.0972 22.7708 11.6667 22.7708ZM20 22.7708C19.5694 22.7708 19.1944 22.6111 18.875 22.2917C18.5556 21.9722 18.3958 21.5972 18.3958 21.1667C18.3958 20.7361 18.5556 20.3611 18.875 20.0417C19.1944 19.7222 19.5694 19.5625 20 19.5625C20.4306 19.5625 20.8056 19.7222 21.125 20.0417C21.4444 20.3611 21.6042 20.7361 21.6042 21.1667C21.6042 21.5972 21.4444 21.9722 21.125 22.2917C20.8056 22.6111 20.4306 22.7708 20 22.7708ZM28.3333 22.7708C27.9028 22.7708 27.5278 22.6111 27.2083 22.2917C26.8889 21.9722 26.7292 21.5972 26.7292 21.1667C26.7292 20.7361 26.8889 20.3611 27.2083 20.0417C27.5278 19.7222 27.9028 19.5625 28.3333 19.5625C28.7639 19.5625 29.1389 19.7222 29.4583 20.0417C29.7778 20.3611 29.9375 20.7361 29.9375 21.1667C29.9375 21.5972 29.7778 21.9722 29.4583 22.2917C29.1389 22.6111 28.7639 22.7708 28.3333 22.7708Z" fill="#CDA274"/>
</svg>
